<svg xmlns="http://www.w3.org/2000/svg" version="1.1" xmlns:xlink="http://www.w3.org/1999/xlink" xmlns:svgjs="http://svgjs.dev/svgjs" width="300" height="560" preserveAspectRatio="none" viewBox="0 0 300 560"><g mask="url(&quot;#SvgjsMask1081&quot;)" fill="none"><rect width="300" height="560" x="0" y="0" fill="rgba(24, 106, 59, 1)"></rect><path d="M0,136.753C27.019,140.032,54.604,135.11,78.712,122.479C104.188,109.131,129.452,90.652,139.456,63.687C149.274,37.225,137.28,8.694,131.15,-18.857C125.48,-44.342,124.1,-73.176,105.036,-91.014C86.367,-108.483,57.667,-105.977,32.611,-111.062C9.871,-115.677,-12.346,-124.127,-35.073,-119.448C-58.886,-114.545,-78.957,-100.269,-97.302,-84.313C-118.06,-66.258,-142.315,-48.201,-147.947,-21.272C-153.658,6.037,-142.107,34.53,-127.072,58.032C-113.165,79.77,-89.259,91.165,-67.322,104.755C-45.764,118.11,-25.175,133.698,0,136.753" fill="#104526"></path><path d="M300 802.9259999999999C344.302 797.085 376.01800000000003 760.127 409.863 730.951 439.31899999999996 705.559 465.48900000000003 678.213 484.214 644.128 504.152 607.835 518.995 569.536 521.252 528.189 523.8820000000001 480.016 535.155 419.26800000000003 498.183 388.274 459.855 356.142 400.51800000000003 393.95 351.2 385.63 310.319 378.733 277.281 336.048 236.62 344.14599999999996 195.74599999999998 352.286 173.001 394.81 145.942 426.50800000000004 119.08500000000001 457.97 84.612 487.246 79.42699999999999 528.2860000000001 74.26400000000001 569.151 103.786 604.408 118.608 642.8389999999999 134.553 684.183 136.572 733.28 169.796 762.601 204.566 793.287 254.024 808.988 300 802.9259999999999" fill="#208f50"></path></g><defs><mask id="SvgjsMask1081"><rect width="300" height="560" fill="#ffffff"></rect></mask></defs></svg>