<svg xmlns="http://www.w3.org/2000/svg" version="1.1" xmlns:xlink="http://www.w3.org/1999/xlink" xmlns:svgjs="http://svgjs.dev/svgjs" width="300" height="560" preserveAspectRatio="none" viewBox="0 0 300 560"><g mask="url(&quot;#SvgjsMask1087&quot;)" fill="none"><rect width="300" height="560" x="0" y="0" fill="rgba(197, 13, 13, 1)"></rect><path d="M0,130.697C25.617,131.636,52.116,128.508,73.58,114.493C94.972,100.525,105.419,76.147,117.784,53.79C131.17,29.587,153.472,5.864,148.729,-21.384C143.988,-48.619,109.125,-58.357,94.21,-81.633C75.523,-110.796,80.693,-155.932,51.042,-173.835C21.734,-191.531,-19.729,-185.382,-49.436,-168.364C-77.776,-152.129,-80.025,-112.527,-100.457,-87.046C-119.751,-62.985,-154.712,-52.716,-165.375,-23.777C-176.754,7.105,-178.5,46.007,-159.346,72.771C-140.275,99.419,-100.99,98.027,-70.193,109.223C-46.722,117.755,-24.957,129.782,0,130.697" fill="#800808"></path><path d="M300 828.6859999999999C349.575 823.7339999999999 397.966 801.913 432.214 765.729 463.233 732.956 460.467 682.852 477.55899999999997 641.0889999999999 493.744 601.543 537.096 569.067 529.941 526.94 522.7760000000001 484.757 466.164 472.113 442.773 436.286 413.742 391.82 424.426 320.094 378.028 294.262 333.115 269.257 276.282 297.699 228.675 317.089 184.52100000000002 335.073 140.479 359.74199999999996 116.33000000000001 400.849 93.66999999999999 439.421 108.57499999999999 487.283 102.642 531.624 96.787 575.386 73.90899999999999 616.236 81.696 659.696 90.725 710.088 109.16399999999999 762.616 149.647 793.954 191.163 826.091 247.75900000000001 833.904 300 828.6859999999999" fill="#f12b2b"></path></g><defs><mask id="SvgjsMask1087"><rect width="300" height="560" fill="#ffffff"></rect></mask></defs></svg>