<svg xmlns="http://www.w3.org/2000/svg" version="1.1" xmlns:xlink="http://www.w3.org/1999/xlink" xmlns:svgjs="http://svgjs.dev/svgjs" width="1500" height="329" viewBox="0 0 1500 329"><g transform="matrix(1,0,0,1,-0.9090909090909918,-0.39828807330005134)"><svg viewBox="0 0 396 87" data-background-color="#ffffff" preserveAspectRatio="xMidYMid meet" height="329" width="1500" xmlns="http://www.w3.org/2000/svg" xmlns:xlink="http://www.w3.org/1999/xlink"><g id="tight-bounds" transform="matrix(1,0,0,1,0.2400000000000091,0.10532237804591205)"><svg viewBox="0 0 395.52 86.78935524390816" height="86.78935524390816" width="395.52"><g><svg viewBox="0 0 395.52 86.78935524390816" height="86.78935524390816" width="395.52"><g><svg viewBox="0 0 395.52 86.78935524390816" height="86.78935524390816" width="395.52"><g><svg viewBox="0 0 395.52000000000004 86.78935524390818" height="86.78935524390816" width="395.52"><g><svg viewBox="0 0 395.52000000000004 86.78935524390818" height="86.78935524390818" width="395.52000000000004"><g id="textblocktransform"><svg viewBox="0 0 395.52000000000004 86.78935524390818" height="86.78935524390818" width="395.52000000000004" id="textblock"><g><svg viewBox="0 0 395.52000000000004 49.202434596903366" height="49.202434596903366" width="395.52000000000004"><g transform="matrix(1,0,0,1,0,0)"><svg width="395.52000000000004" viewBox="3 -35.5 365.78 45.51" height="49.202434596903366" data-palette-color="#000000"><path d="M23.19-9.16L23.19-8.11Q23.19-6.32 22.47-4.76 21.75-3.2 20.54-2.03 19.34-0.85 17.74-0.18 16.14 0.49 14.36 0.49L14.36 0.49 11.84 0.49Q10.06 0.49 8.46-0.18 6.86-0.85 5.65-2.03 4.44-3.2 3.72-4.76 3-6.32 3-8.11L3-8.11 3-9.5 6.15-10.01 6.15-8.11Q6.15-6.93 6.63-5.92 7.1-4.91 7.91-4.14 8.72-3.37 9.78-2.93 10.84-2.49 12.01-2.49L12.01-2.49 14.21-2.49Q15.38-2.49 16.43-2.93 17.48-3.37 18.29-4.14 19.09-4.91 19.57-5.92 20.04-6.93 20.04-8.11L20.04-8.11 20.04-9.16Q20.04-10.96 19.34-12.16 18.63-13.35 17.46-14.2 16.28-15.04 14.81-15.63 13.33-16.21 11.77-16.8 10.21-17.38 8.73-18.09 7.25-18.8 6.08-19.86 4.91-20.92 4.2-22.46 3.49-24 3.49-26.25L3.49-26.25 3.49-26.9Q3.49-28.69 4.16-30.25 4.83-31.81 6.01-32.98 7.18-34.16 8.75-34.83 10.33-35.5 12.11-35.5L12.11-35.5 14.36-35.5Q16.14-35.5 17.7-34.83 19.26-34.16 20.43-32.98 21.61-31.81 22.28-30.25 22.95-28.69 22.95-26.9L22.95-26.9 22.95-26 19.8-25.49 19.8-26.9Q19.8-28.08 19.36-29.09 18.92-30.1 18.16-30.86 17.41-31.62 16.39-32.06 15.38-32.5 14.21-32.5L14.21-32.5 12.26-32.5Q11.08-32.5 10.07-32.06 9.06-31.62 8.29-30.86 7.52-30.1 7.08-29.09 6.64-28.08 6.64-26.9L6.64-26.9 6.64-26.25Q6.64-24.56 7.35-23.41 8.06-22.27 9.23-21.45 10.4-20.63 11.88-20.03 13.35-19.43 14.92-18.81 16.48-18.19 17.96-17.44 19.43-16.7 20.61-15.61 21.78-14.53 22.49-12.96 23.19-11.4 23.19-9.16L23.19-9.16ZM45.65 0L42.65 0 42.65-18.31Q42.65-19.21 42.31-20.01 41.97-20.8 41.38-21.39 40.79-21.97 40-22.31 39.21-22.66 38.3-22.66L38.3-22.66 36.3-22.66Q35.4-22.66 34.6-22.31 33.81-21.97 33.23-21.39 32.64-20.8 32.3-20.01 31.96-19.21 31.96-18.31L31.96-18.31 31.96 0 28.95 0 28.95-35.01 31.96-35.01 31.96-22.9Q32.98-24.12 34.42-24.8 35.86-25.49 37.55-25.49L37.55-25.49 38.3-25.49Q39.82-25.49 41.16-24.91 42.5-24.34 43.5-23.34 44.5-22.34 45.08-21 45.65-19.65 45.65-18.14L45.65-18.14 45.65 0ZM62.01-22.14L59-22.14Q58.1-22.14 57.31-21.8 56.51-21.46 55.93-20.87 55.34-20.29 55-19.49 54.66-18.7 54.66-17.8L54.66-17.8 54.66 0 51.66 0 51.66-25 52.66-25 54.29-22.46Q55.32-23.85 56.87-24.67 58.42-25.49 60.25-25.49L60.25-25.49 62.01-25.49 62.01-22.14ZM82.71-6.86L82.71-6.86Q82.71-5.35 82.13-4 81.56-2.66 80.56-1.66 79.56-0.66 78.22-0.09 76.87 0.49 75.36 0.49L75.36 0.49 73.36 0.49Q71.84 0.49 70.5-0.09 69.16-0.66 68.16-1.66 67.16-2.66 66.58-4 66.01-5.35 66.01-6.86L66.01-6.86 66.01-18.14Q66.01-19.65 66.58-21 67.16-22.34 68.16-23.34 69.16-24.34 70.5-24.91 71.84-25.49 73.36-25.49L73.36-25.49 75.36-25.49Q76.87-25.49 78.22-24.91 79.56-24.34 80.56-23.34 81.56-22.34 82.13-21 82.71-19.65 82.71-18.14L82.71-18.14 82.71-12.26 69.01-12.26 69.01-6.69Q69.01-5.79 69.35-4.99 69.69-4.2 70.28-3.61 70.87-3.03 71.66-2.69 72.45-2.34 73.36-2.34L73.36-2.34 75.36-2.34Q76.26-2.34 77.06-2.69 77.85-3.03 78.43-3.61 79.02-4.2 79.36-4.99 79.7-5.79 79.7-6.69L79.7-6.69 79.7-8.35 82.71-7.86 82.71-6.86ZM79.7-14.6L79.7-18.31Q79.7-19.21 79.36-20.01 79.02-20.8 78.43-21.39 77.85-21.97 77.06-22.31 76.26-22.66 75.36-22.66L75.36-22.66 73.36-22.66Q72.45-22.66 71.66-22.31 70.87-21.97 70.28-21.39 69.69-20.8 69.35-20.01 69.01-19.21 69.01-18.31L69.01-18.31 69.01-14.6 79.7-14.6ZM105.41-6.86L105.41-6.86Q105.41-5.35 104.84-4 104.26-2.66 103.26-1.66 102.26-0.66 100.92-0.09 99.57 0.49 98.06 0.49L98.06 0.49 96.06 0.49Q94.55 0.49 93.2-0.09 91.86-0.66 90.86-1.66 89.86-2.66 89.28-4 88.71-5.35 88.71-6.86L88.71-6.86 88.71-18.14Q88.71-19.65 89.28-21 89.86-22.34 90.86-23.34 91.86-24.34 93.2-24.91 94.55-25.49 96.06-25.49L96.06-25.49 98.06-25.49Q99.57-25.49 100.92-24.91 102.26-24.34 103.26-23.34 104.26-22.34 104.84-21 105.41-19.65 105.41-18.14L105.41-18.14 105.41-12.26 91.71-12.26 91.71-6.69Q91.71-5.79 92.06-4.99 92.4-4.2 92.98-3.61 93.57-3.03 94.36-2.69 95.16-2.34 96.06-2.34L96.06-2.34 98.06-2.34Q98.96-2.34 99.76-2.69 100.55-3.03 101.14-3.61 101.72-4.2 102.07-4.99 102.41-5.79 102.41-6.69L102.41-6.69 102.41-8.35 105.41-7.86 105.41-6.86ZM102.41-14.6L102.41-18.31Q102.41-19.21 102.07-20.01 101.72-20.8 101.14-21.39 100.55-21.97 99.76-22.31 98.96-22.66 98.06-22.66L98.06-22.66 96.06-22.66Q95.16-22.66 94.36-22.31 93.57-21.97 92.98-21.39 92.4-20.8 92.06-20.01 91.71-19.21 91.71-18.31L91.71-18.31 91.71-14.6 102.41-14.6ZM144.91 0L141 0 127.82-17.5 141-35.01 144.91-35.01 131.45-17.5 144.91 0ZM127.06 0L123.91 0 123.91-35.01 127.06-35.01 127.06 0ZM159.26-22.14L156.26-22.14Q155.35-22.14 154.56-21.8 153.77-21.46 153.18-20.87 152.59-20.29 152.25-19.49 151.91-18.7 151.91-17.8L151.91-17.8 151.91 0 148.91 0 148.91-25 149.91-25 151.55-22.46Q152.57-23.85 154.12-24.67 155.67-25.49 157.5-25.49L157.5-25.49 159.26-25.49 159.26-22.14ZM167.51-31.01L164.02-31.01 164.02-35.01 167.51-35.01 167.51-31.01ZM167.27 0L164.26 0 164.26-25 167.27-25 167.27 0ZM191.46-6.35L191.46-6.35Q191.46-4.83 190.85-3.58 190.24-2.32 189.19-1.42 188.14-0.51 186.76-0.01 185.38 0.49 183.86 0.49L183.86 0.49 181.86 0.49Q180.35 0.49 178.97-0.09 177.59-0.66 176.55-1.66 175.51-2.66 174.89-4 174.27-5.35 174.27-6.86L174.27-6.86 174.27-7.86 177.27-8.35 177.27-6.69Q177.27-5.79 177.65-4.99 178.03-4.2 178.66-3.61 179.3-3.03 180.13-2.69 180.96-2.34 181.86-2.34L181.86-2.34 183.86-2.34Q184.77-2.34 185.6-2.61 186.43-2.88 187.07-3.38 187.72-3.88 188.1-4.59 188.48-5.3 188.48-6.2L188.48-6.2Q188.48-7.54 187.89-8.4 187.31-9.25 186.34-9.83 185.38-10.4 184.14-10.78 182.91-11.16 181.62-11.54 180.32-11.91 179.09-12.4 177.86-12.89 176.89-13.68 175.93-14.48 175.34-15.67 174.76-16.87 174.76-18.65L174.76-18.65Q174.76-20.17 175.34-21.42 175.93-22.68 176.93-23.58 177.93-24.49 179.26-24.99 180.59-25.49 182.11-25.49L182.11-25.49 183.86-25.49Q185.38-25.49 186.72-24.91 188.06-24.34 189.06-23.34 190.07-22.34 190.64-21 191.21-19.65 191.21-18.14L191.21-18.14 191.21-18.04 188.21-17.55 188.21-18.31Q188.21-19.21 187.87-20.01 187.53-20.8 186.94-21.39 186.35-21.97 185.56-22.31 184.77-22.66 183.86-22.66L183.86-22.66 182.11-22.66Q181.2-22.66 180.41-22.39 179.62-22.12 179.03-21.62 178.44-21.12 178.1-20.41 177.76-19.7 177.76-18.8L177.76-18.8Q177.76-17.5 178.35-16.69 178.93-15.87 179.9-15.31 180.86-14.75 182.09-14.37 183.33-13.99 184.61-13.59 185.89-13.18 187.12-12.67 188.36-12.16 189.32-11.35 190.29-10.55 190.87-9.34 191.46-8.13 191.46-6.35ZM213.92 0L210.91 0 210.91-18.31Q210.91-19.21 210.57-20.01 210.23-20.8 209.64-21.39 209.06-21.97 208.26-22.31 207.47-22.66 206.57-22.66L206.57-22.66 204.56-22.66Q203.66-22.66 202.87-22.31 202.07-21.97 201.49-21.39 200.9-20.8 200.56-20.01 200.22-19.21 200.22-18.31L200.22-18.31 200.22 0 197.22 0 197.22-35.01 200.22-35.01 200.22-22.9Q201.24-24.12 202.68-24.8 204.13-25.49 205.81-25.49L205.81-25.49 206.57-25.49Q208.08-25.49 209.42-24.91 210.77-24.34 211.77-23.34 212.77-22.34 213.34-21 213.92-19.65 213.92-18.14L213.92-18.14 213.92 0ZM236.62 0L233.62 0 233.62-18.31Q233.62-19.21 233.27-20.01 232.93-20.8 232.35-21.39 231.76-21.97 230.97-22.31 230.17-22.66 229.27-22.66L229.27-22.66 227.27-22.66Q226.36-22.66 225.57-22.31 224.78-21.97 224.19-21.39 223.61-20.8 223.26-20.01 222.92-19.21 222.92-18.31L222.92-18.31 222.92 0 219.92 0 219.92-25 220.92-25 222.56-22.46Q223.58-23.85 225.13-24.67 226.68-25.49 228.51-25.49L228.51-25.49 229.27-25.49Q230.78-25.49 232.13-24.91 233.47-24.34 234.47-23.34 235.47-22.34 236.04-21 236.62-19.65 236.62-18.14L236.62-18.14 236.62 0ZM259.32 0L258.32 0 256.66-2.49Q255.63-1.15 254.1-0.33 252.56 0.49 250.73 0.49L250.73 0.49 249.97 0.49Q248.46 0.49 247.11-0.09 245.77-0.66 244.77-1.66 243.77-2.66 243.2-4 242.62-5.35 242.62-6.86L242.62-6.86 242.62-7.1Q242.62-8.62 243.2-9.96 243.77-11.3 244.77-12.3 245.77-13.31 247.11-13.88 248.46-14.45 249.97-14.45L249.97-14.45 256.32-14.45 256.32-18.31Q256.32-19.21 255.98-20.01 255.63-20.8 255.05-21.39 254.46-21.97 253.67-22.31 252.88-22.66 251.97-22.66L251.97-22.66 250.21-22.66Q249.31-22.66 248.52-22.31 247.72-21.97 247.14-21.39 246.55-20.8 246.21-20.01 245.87-19.21 245.87-18.31L245.87-18.31 245.87-17.41 242.87-17.9 242.87-18.14Q242.87-19.65 243.44-21 244.01-22.34 245.01-23.34 246.01-24.34 247.36-24.91 248.7-25.49 250.21-25.49L250.21-25.49 251.97-25.49Q253.49-25.49 254.83-24.91 256.17-24.34 257.17-23.34 258.17-22.34 258.75-21 259.32-19.65 259.32-18.14L259.32-18.14 259.32 0ZM256.32-6.69L256.32-12.11 249.97-12.11Q249.07-12.11 248.27-11.77 247.48-11.43 246.89-10.83 246.31-10.23 245.97-9.44 245.62-8.64 245.62-7.74L245.62-7.74 245.62-6.69Q245.62-5.79 245.97-4.99 246.31-4.2 246.89-3.61 247.48-3.03 248.27-2.69 249.07-2.34 249.97-2.34L249.97-2.34 251.97-2.34Q252.88-2.34 253.67-2.69 254.46-3.03 255.05-3.61 255.63-4.2 255.98-4.99 256.32-5.79 256.32-6.69L256.32-6.69ZM297.52-8.59L297.52-8.59Q297.52-6.81 296.85-5.25 296.18-3.69 295.01-2.51 293.84-1.34 292.26-0.67 290.69 0 288.91 0L288.91 0 277.82 0 277.82-35.01 288.91-35.01Q290.69-35.01 292.26-34.34 293.84-33.67 295.01-32.5 296.18-31.32 296.85-29.75 297.52-28.17 297.52-26.39L297.52-26.39 297.52-8.59ZM294.37-8.59L294.37-26.39Q294.37-27.56 293.93-28.58 293.5-29.59 292.73-30.36 291.96-31.13 290.94-31.57 289.93-32.01 288.76-32.01L288.76-32.01 280.97-32.01 280.97-3 288.76-3Q289.93-3 290.94-3.44 291.96-3.88 292.73-4.64 293.5-5.4 293.93-6.41 294.37-7.42 294.37-8.59L294.37-8.59ZM320.71 0L319.71 0 318.05-2.49Q317.03-1.15 315.49-0.33 313.95 0.49 312.12 0.49L312.12 0.49 311.36 0.49Q309.85 0.49 308.51-0.09 307.16-0.66 306.16-1.66 305.16-2.66 304.59-4 304.02-5.35 304.02-6.86L304.02-6.86 304.02-7.1Q304.02-8.62 304.59-9.96 305.16-11.3 306.16-12.3 307.16-13.31 308.51-13.88 309.85-14.45 311.36-14.45L311.36-14.45 317.71-14.45 317.71-18.31Q317.71-19.21 317.37-20.01 317.03-20.8 316.44-21.39 315.86-21.97 315.06-22.31 314.27-22.66 313.37-22.66L313.37-22.66 311.61-22.66Q310.7-22.66 309.91-22.31 309.12-21.97 308.53-21.39 307.95-20.8 307.6-20.01 307.26-19.21 307.26-18.31L307.26-18.31 307.26-17.41 304.26-17.9 304.26-18.14Q304.26-19.65 304.83-21 305.41-22.34 306.41-23.34 307.41-24.34 308.75-24.91 310.09-25.49 311.61-25.49L311.61-25.49 313.37-25.49Q314.88-25.49 316.22-24.91 317.57-24.34 318.57-23.34 319.57-22.34 320.14-21 320.71-19.65 320.71-18.14L320.71-18.14 320.71 0ZM317.71-6.69L317.71-12.11 311.36-12.11Q310.46-12.11 309.67-11.77 308.87-11.43 308.29-10.83 307.7-10.23 307.36-9.44 307.02-8.64 307.02-7.74L307.02-7.74 307.02-6.69Q307.02-5.79 307.36-4.99 307.7-4.2 308.29-3.61 308.87-3.03 309.67-2.69 310.46-2.34 311.36-2.34L311.36-2.34 313.37-2.34Q314.27-2.34 315.06-2.69 315.86-3.03 316.44-3.61 317.03-4.2 317.37-4.99 317.71-5.79 317.71-6.69L317.71-6.69ZM330.97-31.01L327.47-31.01 327.47-35.01 330.97-35.01 330.97-31.01ZM330.72 0L327.72 0 327.72-25 330.72-25 330.72 0ZM348.08-22.14L345.07-22.14Q344.17-22.14 343.38-21.8 342.58-21.46 342-20.87 341.41-20.29 341.07-19.49 340.73-18.7 340.73-17.8L340.73-17.8 340.73 0 337.73 0 337.73-25 338.73-25 340.36-22.46Q341.39-23.85 342.94-24.67 344.49-25.49 346.32-25.49L346.32-25.49 348.08-25.49 348.08-22.14ZM368.78-25L356.13 10.01 353.23 10.01 357.67-2.15 349.56-25 352.57-25 359.09-6.05 359.18-4.76 359.28-6.05 365.78-25 368.78-25Z" opacity="1" transform="matrix(1,0,0,1,0,0)" fill="#000000" class="wordmark-text-0" data-fill-palette-color="primary" id="text-0"></path></svg></g></svg></g><g transform="matrix(1,0,0,1,0,56.38225066302189)"><svg viewBox="0 0 395.52000000000004 30.40710458088628" height="30.40710458088628" width="395.52000000000004"><g transform="matrix(1,0,0,1,0,0)"><svg width="395.52000000000004" viewBox="0.49 -35.01 585.59 45.019999999999996" height="30.40710458088628" data-palette-color="#000000"><path d="M14.36-32.15L11.6-32.15Q10.84-32.15 10.19-31.87 9.55-31.59 9.06-31.1 8.57-30.62 8.29-29.96 8.01-29.3 8.01-28.54L8.01-28.54 8.01-25 13.84-25 13.84-22.14 8.01-22.14 8.01 0 5 0 5-22.14 0.49-22.14 0.49-25 5-25 5-28.39Q5-29.76 5.52-30.97 6.03-32.18 6.93-33.08 7.84-33.98 9.03-34.5 10.23-35.01 11.6-35.01L11.6-35.01 14.36-35.01 14.36-32.15ZM40.64-22.14L37.64-22.14Q36.74-22.14 35.94-21.8 35.15-21.46 34.56-20.87 33.98-20.29 33.64-19.49 33.3-18.7 33.3-17.8L33.3-17.8 33.3 0 30.29 0 30.29-25 31.29-25 32.93-22.46Q33.95-23.85 35.5-24.67 37.05-25.49 38.89-25.49L38.89-25.49 40.64-25.49 40.64-22.14ZM74.28-6.86L74.28-6.86Q74.28-5.35 73.71-4 73.13-2.66 72.13-1.66 71.13-0.66 69.79-0.09 68.45 0.49 66.93 0.49L66.93 0.49 64.93 0.49Q63.42 0.49 62.07-0.09 60.73-0.66 59.73-1.66 58.73-2.66 58.16-4 57.58-5.35 57.58-6.86L57.58-6.86 57.58-18.14Q57.58-19.65 58.16-21 58.73-22.34 59.73-23.34 60.73-24.34 62.07-24.91 63.42-25.49 64.93-25.49L64.93-25.49 66.93-25.49Q68.45-25.49 69.79-24.91 71.13-24.34 72.13-23.34 73.13-22.34 73.71-21 74.28-19.65 74.28-18.14L74.28-18.14 74.28-12.26 60.58-12.26 60.58-6.69Q60.58-5.79 60.93-4.99 61.27-4.2 61.85-3.61 62.44-3.03 63.23-2.69 64.03-2.34 64.93-2.34L64.93-2.34 66.93-2.34Q67.84-2.34 68.63-2.69 69.42-3.03 70.01-3.61 70.59-4.2 70.94-4.99 71.28-5.79 71.28-6.69L71.28-6.69 71.28-8.35 74.28-7.86 74.28-6.86ZM71.28-14.6L71.28-18.31Q71.28-19.21 70.94-20.01 70.59-20.8 70.01-21.39 69.42-21.97 68.63-22.31 67.84-22.66 66.93-22.66L66.93-22.66 64.93-22.66Q64.03-22.66 63.23-22.31 62.44-21.97 61.85-21.39 61.27-20.8 60.93-20.01 60.58-19.21 60.58-18.31L60.58-18.31 60.58-14.6 71.28-14.6ZM110.41-6.35L110.41-6.35Q110.41-4.83 109.8-3.58 109.19-2.32 108.14-1.42 107.09-0.51 105.71-0.01 104.33 0.49 102.81 0.49L102.81 0.49 100.81 0.49Q99.3 0.49 97.92-0.09 96.54-0.66 95.5-1.66 94.47-2.66 93.84-4 93.22-5.35 93.22-6.86L93.22-6.86 93.22-7.86 96.22-8.35 96.22-6.69Q96.22-5.79 96.6-4.99 96.98-4.2 97.61-3.61 98.25-3.03 99.08-2.69 99.91-2.34 100.81-2.34L100.81-2.34 102.81-2.34Q103.72-2.34 104.55-2.61 105.38-2.88 106.03-3.38 106.67-3.88 107.05-4.59 107.43-5.3 107.43-6.2L107.43-6.2Q107.43-7.54 106.84-8.4 106.26-9.25 105.29-9.83 104.33-10.4 103.1-10.78 101.86-11.16 100.57-11.54 99.27-11.91 98.04-12.4 96.81-12.89 95.84-13.68 94.88-14.48 94.29-15.67 93.71-16.87 93.71-18.65L93.71-18.65Q93.71-20.17 94.29-21.42 94.88-22.68 95.88-23.58 96.88-24.49 98.21-24.99 99.54-25.49 101.06-25.49L101.06-25.49 102.81-25.49Q104.33-25.49 105.67-24.91 107.01-24.34 108.02-23.34 109.02-22.34 109.59-21 110.16-19.65 110.16-18.14L110.16-18.14 110.16-18.04 107.16-17.55 107.16-18.31Q107.16-19.21 106.82-20.01 106.48-20.8 105.89-21.39 105.31-21.97 104.51-22.31 103.72-22.66 102.81-22.66L102.81-22.66 101.06-22.66Q100.15-22.66 99.36-22.39 98.57-22.12 97.98-21.62 97.4-21.12 97.05-20.41 96.71-19.7 96.71-18.8L96.71-18.8Q96.71-17.5 97.3-16.69 97.88-15.87 98.85-15.31 99.81-14.75 101.04-14.37 102.28-13.99 103.56-13.59 104.84-13.18 106.07-12.67 107.31-12.16 108.27-11.35 109.24-10.55 109.82-9.34 110.41-8.13 110.41-6.35ZM145.8 0L142.8 0 142.8-18.31Q142.8-19.21 142.46-20.01 142.12-20.8 141.53-21.39 140.94-21.97 140.15-22.31 139.36-22.66 138.45-22.66L138.45-22.66 136.45-22.66Q135.55-22.66 134.76-22.31 133.96-21.97 133.38-21.39 132.79-20.8 132.45-20.01 132.11-19.21 132.11-18.31L132.11-18.31 132.11 0 129.1 0 129.1-35.01 132.11-35.01 132.11-22.9Q133.13-24.12 134.57-24.8 136.01-25.49 137.7-25.49L137.7-25.49 138.45-25.49Q139.97-25.49 141.31-24.91 142.65-24.34 143.65-23.34 144.65-22.34 145.23-21 145.8-19.65 145.8-18.14L145.8-18.14 145.8 0ZM205.87 0L204.87 0 203.21-2.54Q202.19-1.15 200.65-0.33 199.11 0.49 197.28 0.49L197.28 0.49 196.52 0.49Q195.01 0.49 193.67-0.09 192.32-0.66 191.32-1.66 190.32-2.66 189.75-4 189.17-5.35 189.17-6.86L189.17-6.86 189.17-18.14Q189.17-19.65 189.75-21 190.32-22.34 191.32-23.34 192.32-24.34 193.67-24.91 195.01-25.49 196.52-25.49L196.52-25.49 197.28-25.49Q198.96-25.49 200.41-24.8 201.85-24.12 202.87-22.9L202.87-22.9 202.87-35.01 205.87-35.01 205.87 0ZM202.87-6.69L202.87-18.31Q202.87-19.21 202.53-20.01 202.19-20.8 201.6-21.39 201.02-21.97 200.22-22.31 199.43-22.66 198.53-22.66L198.53-22.66 196.52-22.66Q195.62-22.66 194.83-22.31 194.03-21.97 193.45-21.39 192.86-20.8 192.52-20.01 192.18-19.21 192.18-18.31L192.18-18.31 192.18-6.69Q192.18-5.79 192.52-4.99 192.86-4.2 193.45-3.61 194.03-3.03 194.83-2.69 195.62-2.34 196.52-2.34L196.52-2.34 198.53-2.34Q199.43-2.34 200.22-2.69 201.02-3.03 201.6-3.61 202.19-4.2 202.53-4.99 202.87-5.79 202.87-6.69L202.87-6.69ZM241.51 0L240.51 0 238.85-2.49Q237.83-1.15 236.29-0.33 234.75 0.49 232.92 0.49L232.92 0.49 232.16 0.49Q230.65 0.49 229.31-0.09 227.96-0.66 226.96-1.66 225.96-2.66 225.39-4 224.81-5.35 224.81-6.86L224.81-6.86 224.81-7.1Q224.81-8.62 225.39-9.96 225.96-11.3 226.96-12.3 227.96-13.31 229.31-13.88 230.65-14.45 232.16-14.45L232.16-14.45 238.51-14.45 238.51-18.31Q238.51-19.21 238.17-20.01 237.83-20.8 237.24-21.39 236.65-21.97 235.86-22.31 235.07-22.66 234.16-22.66L234.16-22.66 232.41-22.66Q231.5-22.66 230.71-22.31 229.92-21.97 229.33-21.39 228.74-20.8 228.4-20.01 228.06-19.21 228.06-18.31L228.06-18.31 228.06-17.41 225.06-17.9 225.06-18.14Q225.06-19.65 225.63-21 226.21-22.34 227.21-23.34 228.21-24.34 229.55-24.91 230.89-25.49 232.41-25.49L232.41-25.49 234.16-25.49Q235.68-25.49 237.02-24.91 238.36-24.34 239.36-23.34 240.37-22.34 240.94-21 241.51-19.65 241.51-18.14L241.51-18.14 241.51 0ZM238.51-6.69L238.51-12.11 232.16-12.11Q231.26-12.11 230.47-11.77 229.67-11.43 229.09-10.83 228.5-10.23 228.16-9.44 227.82-8.64 227.82-7.74L227.82-7.74 227.82-6.69Q227.82-5.79 228.16-4.99 228.5-4.2 229.09-3.61 229.67-3.03 230.47-2.69 231.26-2.34 232.16-2.34L232.16-2.34 234.16-2.34Q235.07-2.34 235.86-2.69 236.65-3.03 237.24-3.61 237.83-4.2 238.17-4.99 238.51-5.79 238.51-6.69L238.51-6.69ZM264.7-31.01L261.21-31.01 261.21-35.01 264.7-35.01 264.7-31.01ZM264.46 0L261.45 0 261.45-25 264.46-25 264.46 0ZM294.75-22.14L291.75-22.14Q290.84-22.14 290.05-21.8 289.26-21.46 288.67-20.87 288.08-20.29 287.74-19.49 287.4-18.7 287.4-17.8L287.4-17.8 287.4 0 284.4 0 284.4-25 285.4-25 287.03-22.46Q288.06-23.85 289.61-24.67 291.16-25.49 292.99-25.49L292.99-25.49 294.75-25.49 294.75-22.14ZM328.39-25L315.74 10.01 312.83 10.01 317.28-2.15 309.17-25 312.17-25 318.69-6.05 318.79-4.76 318.89-6.05 325.38-25 328.39-25ZM385.45-6.86L385.45-6.86Q385.45-5.35 384.88-4 384.31-2.66 383.31-1.66 382.3-0.66 380.96-0.09 379.62 0.49 378.11 0.49L378.11 0.49 377.35 0.49Q375.66 0.49 374.22-0.2 372.78-0.88 371.76-2.1L371.76-2.1 371.76 10.01 368.75 10.01 368.75-25 369.76-25 371.39-22.46Q372.42-23.85 373.97-24.67 375.52-25.49 377.35-25.49L377.35-25.49 378.11-25.49Q379.62-25.49 380.96-24.91 382.3-24.34 383.31-23.34 384.31-22.34 384.88-21 385.45-19.65 385.45-18.14L385.45-18.14 385.45-6.86ZM382.45-6.69L382.45-18.31Q382.45-19.21 382.11-20.01 381.77-20.8 381.18-21.39 380.6-21.97 379.8-22.31 379.01-22.66 378.11-22.66L378.11-22.66 376.1-22.66Q375.2-22.66 374.41-22.31 373.61-21.97 373.03-21.39 372.44-20.8 372.1-20.01 371.76-19.21 371.76-18.31L371.76-18.31 371.76-6.69Q371.76-5.79 372.1-4.99 372.44-4.2 373.03-3.61 373.61-3.03 374.41-2.69 375.2-2.34 376.1-2.34L376.1-2.34 378.11-2.34Q379.01-2.34 379.8-2.69 380.6-3.03 381.18-3.61 381.77-4.2 382.11-4.99 382.45-5.79 382.45-6.69L382.45-6.69ZM414.75-22.14L411.74-22.14Q410.84-22.14 410.05-21.8 409.25-21.46 408.67-20.87 408.08-20.29 407.74-19.49 407.4-18.7 407.4-17.8L407.4-17.8 407.4 0 404.39 0 404.39-25 405.39-25 407.03-22.46Q408.06-23.85 409.61-24.67 411.16-25.49 412.99-25.49L412.99-25.49 414.75-25.49 414.75-22.14ZM448.38-6.86L448.38-6.86Q448.38-5.35 447.81-4 447.23-2.66 446.23-1.66 445.23-0.66 443.89-0.09 442.55 0.49 441.03 0.49L441.03 0.49 439.03 0.49Q437.52 0.49 436.18-0.09 434.83-0.66 433.83-1.66 432.83-2.66 432.26-4 431.68-5.35 431.68-6.86L431.68-6.86 431.68-18.14Q431.68-19.65 432.26-21 432.83-22.34 433.83-23.34 434.83-24.34 436.18-24.91 437.52-25.49 439.03-25.49L439.03-25.49 441.03-25.49Q442.55-25.49 443.89-24.91 445.23-24.34 446.23-23.34 447.23-22.34 447.81-21 448.38-19.65 448.38-18.14L448.38-18.14 448.38-6.86ZM445.38-6.69L445.38-18.31Q445.38-19.21 445.04-20.01 444.7-20.8 444.11-21.39 443.52-21.97 442.73-22.31 441.94-22.66 441.03-22.66L441.03-22.66 439.03-22.66Q438.13-22.66 437.33-22.31 436.54-21.97 435.96-21.39 435.37-20.8 435.03-20.01 434.69-19.21 434.69-18.31L434.69-18.31 434.69-6.69Q434.69-5.79 435.03-4.99 435.37-4.2 435.96-3.61 436.54-3.03 437.33-2.69 438.13-2.34 439.03-2.34L439.03-2.34 441.03-2.34Q441.94-2.34 442.73-2.69 443.52-3.03 444.11-3.61 444.7-4.2 445.04-4.99 445.38-5.79 445.38-6.69L445.38-6.69ZM484.02 0L483.02 0 481.36-2.54Q480.33-1.15 478.8-0.33 477.26 0.49 475.43 0.49L475.43 0.49 474.67 0.49Q473.16 0.49 471.81-0.09 470.47-0.66 469.47-1.66 468.47-2.66 467.9-4 467.32-5.35 467.32-6.86L467.32-6.86 467.32-18.14Q467.32-19.65 467.9-21 468.47-22.34 469.47-23.34 470.47-24.34 471.81-24.91 473.16-25.49 474.67-25.49L474.67-25.49 475.43-25.49Q477.11-25.49 478.55-24.8 479.99-24.12 481.02-22.9L481.02-22.9 481.02-35.01 484.02-35.01 484.02 0ZM481.02-6.69L481.02-18.31Q481.02-19.21 480.68-20.01 480.33-20.8 479.75-21.39 479.16-21.97 478.37-22.31 477.58-22.66 476.67-22.66L476.67-22.66 474.67-22.66Q473.77-22.66 472.97-22.31 472.18-21.97 471.59-21.39 471.01-20.8 470.67-20.01 470.32-19.21 470.32-18.31L470.32-18.31 470.32-6.69Q470.32-5.79 470.67-4.99 471.01-4.2 471.59-3.61 472.18-3.03 472.97-2.69 473.77-2.34 474.67-2.34L474.67-2.34 476.67-2.34Q477.58-2.34 478.37-2.69 479.16-3.03 479.75-3.61 480.33-4.2 480.68-4.99 481.02-5.79 481.02-6.69L481.02-6.69ZM519.66 0L518.66 0 517-2.54Q515.97-1.15 514.44-0.33 512.9 0.49 511.07 0.49L511.07 0.49 510.31 0.49Q508.8 0.49 507.45-0.09 506.11-0.66 505.11-1.66 504.11-2.66 503.53-4 502.96-5.35 502.96-6.86L502.96-6.86 502.96-25 505.96-25 505.96-6.69Q505.96-5.79 506.31-4.99 506.65-4.2 507.23-3.61 507.82-3.03 508.61-2.69 509.41-2.34 510.31-2.34L510.31-2.34 512.31-2.34Q513.21-2.34 514.01-2.69 514.8-3.03 515.39-3.61 515.97-4.2 516.32-4.99 516.66-5.79 516.66-6.69L516.66-6.69 516.66-25 519.66-25 519.66 0ZM555.3-6.86L555.3-6.86Q555.3-5.35 554.73-4 554.15-2.66 553.15-1.66 552.15-0.66 550.81-0.09 549.46 0.49 547.95 0.49L547.95 0.49 545.95 0.49Q544.43 0.49 543.09-0.09 541.75-0.66 540.75-1.66 539.75-2.66 539.17-4 538.6-5.35 538.6-6.86L538.6-6.86 538.6-18.14Q538.6-19.65 539.17-21 539.75-22.34 540.75-23.34 541.75-24.34 543.09-24.91 544.43-25.49 545.95-25.49L545.95-25.49 547.95-25.49Q549.46-25.49 550.81-24.91 552.15-24.34 553.15-23.34 554.15-22.34 554.73-21 555.3-19.65 555.3-18.14L555.3-18.14 555.3-17.14 552.3-16.65 552.3-18.31Q552.3-19.21 551.95-20.01 551.61-20.8 551.03-21.39 550.44-21.97 549.65-22.31 548.85-22.66 547.95-22.66L547.95-22.66 545.95-22.66Q545.04-22.66 544.25-22.31 543.46-21.97 542.87-21.39 542.29-20.8 541.94-20.01 541.6-19.21 541.6-18.31L541.6-18.31 541.6-6.69Q541.6-5.79 541.94-4.99 542.29-4.2 542.87-3.61 543.46-3.03 544.25-2.69 545.04-2.34 545.95-2.34L545.95-2.34 547.95-2.34Q548.85-2.34 549.65-2.69 550.44-3.03 551.03-3.61 551.61-4.2 551.95-4.99 552.3-5.79 552.3-6.69L552.3-6.69 552.3-8.35 555.3-7.86 555.3-6.86ZM586.08 0L583.34 0Q581.98 0 580.77-0.51 579.56-1.03 578.67-1.93 577.78-2.83 577.25-4.03 576.73-5.22 576.73-6.59L576.73-6.59 576.73-22.14 572.24-22.14 572.24-25 576.73-25 576.73-31.01 579.73-31.49 579.73-25 586.08-25 586.08-22.14 579.73-22.14 579.73-6.45Q579.73-5.69 580.01-5.04 580.29-4.39 580.78-3.91 581.27-3.42 581.93-3.14 582.59-2.86 583.34-2.86L583.34-2.86 586.08-2.86 586.08 0Z" opacity="1" transform="matrix(1,0,0,1,0,0)" fill="#000000" class="slogan-text-1" data-fill-palette-color="secondary" id="text-1"></path></svg></g></svg></g></svg></g></svg></g><g></g></svg></g></svg></g></svg></g><defs></defs></svg><rect width="395.52" height="86.78935524390816" fill="none" stroke="none" visibility="hidden"></rect></g></svg></g></svg>