<?xml version="1.0" encoding="utf-8"?>
<!-- Generator: Adobe Illustrator 26.1.0, SVG Export Plug-In . SVG Version: 6.00 Build 0)  -->
<svg version="1.1" id="textblock" xmlns:svgjs="http://svgjs.dev/svgjs"
	 xmlns="http://www.w3.org/2000/svg" xmlns:xlink="http://www.w3.org/1999/xlink" x="0px" y="0px" viewBox="0 0 1069.3 297.7"
	 style="enable-background:new 0 0 1069.3 297.7;" xml:space="preserve">
<style type="text/css">
	.st0{fill:#FFFFFF;}
	.st1{display:none;fill:none;}
</style>
<g transform="matrix(0.6666666666666666,0,0,0.6666666666666666,249.39393939393938,640.0678079511333)">
	<g id="tight-bounds" transform="matrix(1,0,0,1,0.2400000000000091,0.10532237804591205)">
		<g>
			<g>
				<g>
					<g>
						<g id="textblocktransform">
							<g>
								<g transform="matrix(1,0,0,1,0,0)">
									<path id="text-0" class="st0" d="M-251.3-778.3v4.3c0,4.9-1,9.4-2.9,13.7c-2,4.3-4.6,8-7.9,11.2c-3.3,3.2-7.1,5.7-11.4,7.6
										c-4.4,1.8-9,2.7-13.8,2.7l0,0h-10.3c-4.9,0-9.5-0.9-13.8-2.7c-4.4-1.8-8.2-4.3-11.5-7.6c-3.3-3.2-5.9-6.9-7.9-11.2
										s-2.9-8.8-2.9-13.7l0,0v-5.7l12.9-2.1v7.8c0,3.2,0.7,6.2,2,9c1.3,2.8,3,5.2,5.2,7.3c2.2,2.1,4.8,3.7,7.6,4.9
										c2.9,1.2,5.9,1.8,9.1,1.8l0,0h9c3.2,0,6.2-0.6,9.1-1.8c2.9-1.2,5.4-2.8,7.6-4.9c2.2-2.1,3.9-4.5,5.2-7.3
										c1.3-2.8,1.9-5.7,1.9-9l0,0v-4.3c0-4.9-1-9-2.9-12.3c-1.9-3.2-4.5-6-7.7-8.3c-3.2-2.3-6.8-4.2-10.8-5.8
										c-4-1.6-8.2-3.2-12.4-4.8c-4.3-1.6-8.4-3.3-12.4-5.3c-4-1.9-7.6-4.3-10.8-7.2s-5.8-6.4-7.7-10.6c-1.9-4.2-2.9-9.4-2.9-15.5
										l0,0v-2.7c0-4.9,0.9-9.4,2.7-13.7c1.8-4.3,4.3-8,7.6-11.2c3.2-3.2,6.9-5.7,11.2-7.6c4.3-1.8,8.9-2.7,13.7-2.7l0,0h9.2
										c4.9,0,9.4,0.9,13.7,2.7c4.3,1.8,8,4.3,11.2,7.6c3.2,3.2,5.7,6.9,7.6,11.2s2.7,8.8,2.7,13.7l0,0v3.7l-12.9,2.1v-5.8
										c0-3.2-0.6-6.2-1.8-9c-1.2-2.8-2.8-5.2-4.9-7.2c-2-2.1-4.5-3.7-7.2-4.9c-2.8-1.2-5.7-1.8-8.9-1.8l0,0h-8
										c-3.2,0-6.2,0.6-9,1.8c-2.8,1.2-5.2,2.8-7.3,4.9s-3.7,4.5-4.9,7.2c-1.2,2.8-1.8,5.7-1.8,9l0,0v2.7c0,4.6,1,8.5,2.9,11.6
										c1.9,3.1,4.5,5.8,7.7,8c3.2,2.2,6.8,4.2,10.8,5.8c4,1.6,8.1,3.3,12.4,5c4.3,1.7,8.4,3.6,12.4,5.6c4,2,7.6,4.5,10.8,7.5
										c3.2,2.9,5.8,6.6,7.7,10.8C-252.2-789.6-251.3-784.4-251.3-778.3L-251.3-778.3z M-159.5-740.8h-12.3v-74.9
										c0-2.5-0.5-4.8-1.4-7c-0.9-2.2-2.2-4-3.8-5.6c-1.6-1.6-3.5-2.8-5.6-3.8c-2.2-1-4.5-1.4-7-1.4l0,0h-8.2
										c-2.5,0-4.8,0.5-7,1.4c-2.2,0.9-4,2.2-5.6,3.8c-1.6,1.6-2.9,3.5-3.8,5.6c-0.9,2.2-1.4,4.5-1.4,7l0,0v74.9h-12.3V-884h12.3
										v49.5c2.8-3.3,6.1-5.9,10.1-7.8c3.9-1.9,8.2-2.8,12.8-2.8l0,0h3.1c4.1,0,8,0.8,11.7,2.4c3.7,1.6,6.8,3.7,9.6,6.4
										c2.7,2.7,4.9,5.9,6.5,9.6c1.6,3.7,2.3,7.6,2.3,11.7l0,0V-740.8z M-92.6-831.4h-12.3c-2.5,0-4.8,0.5-6.9,1.4
										c-2.2,0.9-4.1,2.2-5.6,3.8c-1.6,1.6-2.9,3.5-3.8,5.6c-0.9,2.2-1.4,4.5-1.4,6.9l0,0v72.8h-12.3v-102.2h4.1l6.7,10.4
										c2.8-3.8,6.3-6.8,10.5-9c4.2-2.2,8.8-3.4,13.8-3.4l0,0h7.2V-831.4z M-7.9-768.9L-7.9-768.9c0,4.1-0.8,8-2.4,11.7
										c-1.6,3.7-3.7,6.8-6.4,9.6s-5.9,4.9-9.6,6.4c-3.7,1.6-7.6,2.4-11.7,2.4l0,0h-8.2c-4.1,0-8-0.8-11.7-2.4
										c-3.7-1.6-6.8-3.7-9.6-6.4c-2.7-2.7-4.9-5.9-6.5-9.6c-1.6-3.7-2.3-7.6-2.3-11.7l0,0V-815c0-4.1,0.8-8,2.3-11.7
										c1.6-3.7,3.7-6.8,6.5-9.6c2.7-2.7,5.9-4.9,9.6-6.4c3.7-1.6,7.5-2.4,11.7-2.4l0,0h8.2c4.1,0,8,0.8,11.7,2.4
										c3.7,1.6,6.8,3.7,9.6,6.4c2.7,2.7,4.9,5.9,6.4,9.6c1.6,3.7,2.4,7.6,2.4,11.7l0,0v24h-56v22.8c0,2.5,0.5,4.8,1.4,7
										c0.9,2.2,2.2,4,3.8,5.6c1.6,1.6,3.5,2.8,5.6,3.8c2.2,1,4.5,1.4,7,1.4l0,0h8.2c2.5,0,4.8-0.5,7-1.4c2.2-0.9,4-2.2,5.6-3.8
										c1.6-1.6,2.9-3.5,3.8-5.6c0.9-2.2,1.4-4.5,1.4-7l0,0v-6.8l12.3,2V-768.9z M-20.2-800.5v-15.2c0-2.5-0.5-4.8-1.4-7
										c-0.9-2.2-2.2-4-3.8-5.6c-1.6-1.6-3.4-2.8-5.6-3.8c-2.2-1-4.5-1.4-7-1.4l0,0h-8.2c-2.5,0-4.8,0.5-7,1.4
										c-2.2,0.9-4,2.2-5.6,3.8c-1.6,1.6-2.9,3.5-3.8,5.6c-0.9,2.2-1.4,4.5-1.4,7l0,0v15.2H-20.2z M84.9-768.9L84.9-768.9
										c0,4.1-0.8,8-2.3,11.7c-1.6,3.7-3.7,6.8-6.5,9.6c-2.7,2.7-5.9,4.9-9.6,6.4c-3.7,1.6-7.6,2.4-11.7,2.4l0,0h-8.2
										c-4.1,0-8-0.8-11.7-2.4c-3.7-1.6-6.8-3.7-9.6-6.4c-2.7-2.7-4.9-5.9-6.5-9.6c-1.6-3.7-2.3-7.6-2.3-11.7l0,0V-815
										c0-4.1,0.8-8,2.3-11.7c1.6-3.7,3.7-6.8,6.5-9.6c2.7-2.7,5.9-4.9,9.6-6.4c3.7-1.6,7.6-2.4,11.7-2.4l0,0h8.2
										c4.1,0,8,0.8,11.7,2.4c3.7,1.6,6.8,3.7,9.6,6.4c2.7,2.7,4.9,5.9,6.5,9.6c1.6,3.7,2.3,7.6,2.3,11.7l0,0v24h-56v22.8
										c0,2.5,0.5,4.8,1.4,7c0.9,2.2,2.2,4,3.8,5.6c1.6,1.6,3.5,2.8,5.6,3.8c2.2,1,4.5,1.4,7,1.4l0,0h8.2c2.5,0,4.8-0.5,7-1.4
										c2.2-0.9,4-2.2,5.6-3.8c1.6-1.6,2.8-3.5,3.8-5.6c0.9-2.2,1.4-4.5,1.4-7l0,0v-6.8l12.3,2V-768.9z M72.6-800.5v-15.2
										c0-2.5-0.5-4.8-1.4-7c-1-2.2-2.2-4-3.8-5.6c-1.6-1.6-3.5-2.8-5.6-3.8c-2.2-1-4.5-1.4-7-1.4l0,0h-8.2c-2.5,0-4.8,0.5-7,1.4
										c-2.2,0.9-4,2.2-5.6,3.8c-1.6,1.6-2.8,3.5-3.8,5.6c-1,2.2-1.4,4.5-1.4,7l0,0v15.2H72.6z M246.4-740.8h-16l-53.9-71.5
										l53.9-71.6h16l-55,71.6L246.4-740.8z M173.4-740.8h-12.9V-884h12.9V-740.8z M305-831.4h-12.3c-2.5,0-4.8,0.5-7,1.4
										c-2.2,0.9-4,2.2-5.6,3.8c-1.6,1.6-2.9,3.5-3.8,5.6c-0.9,2.2-1.4,4.5-1.4,6.9l0,0v72.8h-12.3v-102.2h4.1l6.7,10.4
										c2.8-3.8,6.3-6.8,10.5-9c4.2-2.2,8.8-3.4,13.8-3.4l0,0h7.2V-831.4z M338.8-867.6h-14.3V-884h14.3V-867.6z M337.8-740.8
										h-12.3v-102.2h12.3V-740.8z M436.7-766.8L436.7-766.8c0,4.1-0.8,7.9-2.5,11.3c-1.7,3.4-3.9,6.4-6.8,8.8
										c-2.9,2.5-6.2,4.4-9.9,5.8c-3.8,1.4-7.7,2-11.9,2l0,0h-8.2c-4.1,0-8.1-0.8-11.8-2.4c-3.8-1.6-7.1-3.7-9.9-6.4
										s-5.1-5.9-6.8-9.6c-1.7-3.7-2.5-7.6-2.5-11.7l0,0v-4.1l12.3-2v6.8c0,2.5,0.5,4.8,1.6,7c1,2.2,2.4,4,4.1,5.6
										c1.7,1.6,3.7,2.8,6,3.8c2.3,1,4.6,1.4,7.1,1.4l0,0h8.2c2.5,0,4.9-0.4,7.1-1.1c2.3-0.7,4.3-1.8,6-3.1c1.8-1.4,3.2-3,4.2-4.9
										c1-1.9,1.6-4.1,1.6-6.6l0,0c0-3.7-0.8-6.7-2.4-9c-1.6-2.3-3.7-4.3-6.3-5.8c-2.6-1.6-5.6-2.8-9-3.9c-3.4-1-6.8-2.1-10.3-3.1
										c-3.5-1-7-2.2-10.3-3.5c-3.4-1.3-6.4-3.1-9-5.2c-2.6-2.2-4.7-4.9-6.3-8.1c-1.6-3.3-2.4-7.3-2.4-12.2l0,0
										c0-4.1,0.8-7.9,2.4-11.3c1.6-3.4,3.8-6.4,6.5-8.8c2.7-2.5,5.9-4.4,9.5-5.8c3.6-1.4,7.5-2,11.7-2l0,0h7.2
										c4.1,0,8,0.8,11.7,2.4c3.7,1.6,6.8,3.7,9.6,6.4c2.8,2.7,4.9,5.9,6.5,9.6c1.6,3.7,2.3,7.6,2.3,11.7l0,0v0.4l-12.3,2v-3.1
										c0-2.5-0.5-4.8-1.4-7c-0.9-2.2-2.2-4-3.8-5.6c-1.6-1.6-3.5-2.8-5.6-3.8c-2.2-1-4.5-1.4-7-1.4l0,0h-7.2
										c-2.5,0-4.8,0.4-7,1.1c-2.2,0.7-4,1.8-5.6,3.1c-1.6,1.4-2.9,3-3.8,4.9c-0.9,1.9-1.4,4.1-1.4,6.6l0,0c0,3.5,0.8,6.4,2.4,8.6
										c1.6,2.2,3.7,4.1,6.3,5.6c2.6,1.5,5.6,2.8,9,3.8c3.4,1,6.8,2.1,10.3,3.2c3.5,1.1,6.9,2.4,10.3,3.8c3.4,1.4,6.4,3.2,9,5.4
										c2.6,2.2,4.8,4.9,6.3,8.2C435.9-775.7,436.7-771.7,436.7-766.8z M528.5-740.8h-12.3v-74.9c0-2.5-0.5-4.8-1.4-7
										c-0.9-2.2-2.2-4-3.8-5.6c-1.6-1.6-3.5-2.8-5.6-3.8c-2.2-1-4.5-1.4-6.9-1.4l0,0h-8.2c-2.5,0-4.8,0.5-6.9,1.4
										c-2.2,0.9-4.1,2.2-5.6,3.8c-1.6,1.6-2.9,3.5-3.8,5.6c-0.9,2.2-1.4,4.5-1.4,7l0,0v74.9h-12.3V-884h12.3v49.5
										c2.8-3.3,6.1-5.9,10.1-7.8c4-1.9,8.2-2.8,12.8-2.8l0,0h3.1c4.1,0,8,0.8,11.7,2.4c3.7,1.6,6.9,3.7,9.6,6.4
										c2.7,2.7,4.9,5.9,6.4,9.6c1.6,3.7,2.4,7.6,2.4,11.7l0,0V-740.8z M621.3-740.8H609v-74.9c0-2.5-0.5-4.8-1.4-7
										c-0.9-2.2-2.2-4-3.8-5.6c-1.6-1.6-3.5-2.8-5.6-3.8c-2.2-1-4.5-1.4-7-1.4l0,0h-8.2c-2.5,0-4.8,0.5-7,1.4
										c-2.2,0.9-4,2.2-5.6,3.8c-1.6,1.6-2.8,3.5-3.8,5.6c-0.9,2.2-1.4,4.5-1.4,7l0,0v74.9H553v-102.2h4.1l6.7,10.4
										c2.8-3.8,6.3-6.8,10.5-9s8.8-3.4,13.8-3.4l0,0h3.1c4.1,0,8,0.8,11.7,2.4c3.7,1.6,6.8,3.7,9.6,6.4c2.7,2.7,4.9,5.9,6.4,9.6
										c1.6,3.7,2.4,7.6,2.4,11.7l0,0V-740.8z M714.1-740.8H710l-6.8-10.2c-2.8,3.7-6.3,6.6-10.5,8.8c-4.2,2.2-8.8,3.4-13.8,3.4
										l0,0h-3.1c-4.1,0-8-0.8-11.7-2.4c-3.7-1.6-6.8-3.7-9.6-6.4c-2.7-2.7-4.9-5.9-6.4-9.6c-1.6-3.7-2.4-7.6-2.4-11.7l0,0v-1
										c0-4.1,0.8-8,2.4-11.7c1.6-3.7,3.7-6.8,6.4-9.6c2.7-2.8,5.9-4.9,9.6-6.5c3.7-1.6,7.6-2.3,11.7-2.3l0,0h26v-15.8
										c0-2.5-0.5-4.8-1.4-7c-1-2.2-2.2-4-3.8-5.6c-1.6-1.6-3.5-2.8-5.6-3.8c-2.2-1-4.5-1.4-7-1.4l0,0h-7.2
										c-2.5,0-4.8,0.5-6.9,1.4c-2.2,0.9-4.1,2.2-5.6,3.8c-1.6,1.6-2.9,3.5-3.8,5.6c-0.9,2.2-1.4,4.5-1.4,7l0,0v3.7l-12.3-2v-1
										c0-4.1,0.8-8,2.3-11.7c1.6-3.7,3.7-6.8,6.4-9.6c2.7-2.7,5.9-4.9,9.6-6.4c3.7-1.6,7.5-2.4,11.7-2.4l0,0h7.2
										c4.1,0,8,0.8,11.7,2.4c3.7,1.6,6.8,3.7,9.6,6.4c2.7,2.7,4.9,5.9,6.5,9.6c1.6,3.7,2.3,7.6,2.3,11.7l0,0V-740.8z
										 M701.9-768.2v-22.2h-26c-2.5,0-4.8,0.5-7,1.4c-2.2,0.9-4,2.2-5.6,3.8c-1.6,1.6-2.8,3.5-3.8,5.7c-1,2.2-1.4,4.5-1.4,7l0,0
										v4.3c0,2.5,0.5,4.8,1.4,7c0.9,2.2,2.2,4,3.8,5.6c1.6,1.6,3.5,2.8,5.6,3.8c2.2,1,4.5,1.4,7,1.4l0,0h8.2c2.5,0,4.8-0.5,7-1.4
										c2.2-0.9,4-2.2,5.6-3.8c1.6-1.6,2.8-3.5,3.8-5.6C701.4-763.4,701.9-765.7,701.9-768.2L701.9-768.2z M870.3-776L870.3-776
										c0,4.9-0.9,9.4-2.7,13.7c-1.8,4.3-4.3,8-7.5,11.2c-3.2,3.2-6.9,5.7-11.2,7.5c-4.3,1.8-8.8,2.7-13.7,2.7l0,0h-45.3V-884
										h45.3c4.9,0,9.4,0.9,13.7,2.7c4.3,1.8,8.1,4.3,11.2,7.5c3.2,3.2,5.7,7,7.5,11.2c1.8,4.3,2.7,8.9,2.7,13.7l0,0V-776z
										 M857.4-776v-72.8c0-3.2-0.6-6.2-1.8-9c-1.2-2.8-2.8-5.2-4.9-7.3c-2.1-2.1-4.5-3.7-7.3-4.9c-2.8-1.2-5.7-1.8-8.9-1.8l0,0
										h-31.8v118.6h31.8c3.2,0,6.2-0.6,8.9-1.8c2.8-1.2,5.2-2.8,7.3-4.9c2.1-2.1,3.7-4.5,4.9-7.2
										C856.8-769.8,857.4-772.8,857.4-776L857.4-776z M965.1-740.8H961l-6.8-10.2c-2.8,3.7-6.3,6.6-10.5,8.8
										c-4.2,2.2-8.8,3.4-13.8,3.4l0,0h-3.1c-4.1,0-8-0.8-11.7-2.4c-3.7-1.6-6.9-3.7-9.6-6.4c-2.7-2.7-4.9-5.9-6.4-9.6
										c-1.6-3.7-2.3-7.6-2.3-11.7l0,0v-1c0-4.1,0.8-8,2.3-11.7c1.6-3.7,3.7-6.8,6.4-9.6c2.7-2.8,5.9-4.9,9.6-6.5
										c3.7-1.6,7.5-2.3,11.7-2.3l0,0h26v-15.8c0-2.5-0.5-4.8-1.4-7c-0.9-2.2-2.2-4-3.8-5.6c-1.6-1.6-3.5-2.8-5.6-3.8
										c-2.2-1-4.5-1.4-6.9-1.4l0,0h-7.2c-2.5,0-4.8,0.5-7,1.4c-2.2,0.9-4,2.2-5.6,3.8c-1.6,1.6-2.8,3.5-3.8,5.6
										c-0.9,2.2-1.4,4.5-1.4,7l0,0v3.7l-12.3-2v-1c0-4.1,0.8-8,2.3-11.7c1.6-3.7,3.7-6.8,6.5-9.6c2.7-2.7,5.9-4.9,9.6-6.4
										c3.7-1.6,7.5-2.4,11.7-2.4l0,0h7.2c4.1,0,8,0.8,11.7,2.4c3.7,1.6,6.9,3.7,9.6,6.4c2.7,2.7,4.9,5.9,6.4,9.6
										c1.6,3.7,2.3,7.6,2.3,11.7l0,0V-740.8z M952.8-768.2v-22.2h-26c-2.5,0-4.8,0.5-6.9,1.4c-2.2,0.9-4.1,2.2-5.6,3.8
										c-1.6,1.6-2.9,3.5-3.8,5.7c-0.9,2.2-1.4,4.5-1.4,7l0,0v4.3c0,2.5,0.5,4.8,1.4,7c0.9,2.2,2.2,4,3.8,5.6
										c1.6,1.6,3.5,2.8,5.6,3.8c2.2,1,4.5,1.4,6.9,1.4l0,0h8.2c2.5,0,4.8-0.5,6.9-1.4c2.2-0.9,4.1-2.2,5.6-3.8
										c1.6-1.6,2.9-3.5,3.8-5.6C952.4-763.4,952.8-765.7,952.8-768.2L952.8-768.2z M1007.1-867.6h-14.3V-884h14.3V-867.6z
										 M1006-740.8h-12.3v-102.2h12.3V-740.8z M1077-831.4h-12.3c-2.5,0-4.8,0.5-6.9,1.4c-2.2,0.9-4.1,2.2-5.6,3.8
										c-1.6,1.6-2.9,3.5-3.8,5.6c-0.9,2.2-1.4,4.5-1.4,6.9l0,0v72.8h-12.3v-102.2h4.1l6.7,10.4c2.8-3.8,6.3-6.8,10.5-9
										c4.2-2.2,8.8-3.4,13.8-3.4l0,0h7.2V-831.4z M1161.6-843.1l-51.7,143.1h-11.9l18.2-49.7l-33.2-93.4h12.3l26.7,77.5l0.4,5.3
										l0.4-5.3l26.6-77.5H1161.6z"/>
								</g>
							</g>
							<g transform="matrix(1,0,0,1,0,56.38225066302189)">
								<g transform="matrix(1,0,0,1,0,0)">
									<path id="text-1" class="st0" d="M-298.5-721.8h-7c-1.3,0-2.5,0.2-3.6,0.7c-1.1,0.5-2.1,1.1-2.9,2c-0.8,0.8-1.5,1.8-2,2.9
										c-0.5,1.1-0.7,2.3-0.7,3.6l0,0v9h14.9v7.3h-14.9v56.5h-7.7v-56.5h-11.5v-7.3h11.5v-8.7c0-2.3,0.4-4.5,1.3-6.6
										c0.9-2.1,2.1-3.9,3.6-5.4c1.5-1.5,3.3-2.7,5.4-3.6c2-0.9,4.2-1.3,6.6-1.3l0,0h7V-721.8z M-231.4-696.3h-7.7
										c-1.5,0-3,0.3-4.3,0.9c-1.3,0.6-2.5,1.4-3.5,2.4c-1,1-1.8,2.2-2.3,3.5c-0.6,1.3-0.9,2.8-0.9,4.3l0,0v45.5h-7.7v-63.9h2.6
										l4.2,6.5c1.7-2.4,3.9-4.2,6.6-5.6c2.6-1.4,5.5-2.1,8.7-2.1l0,0h4.5V-696.3z M-145.5-657.3L-145.5-657.3
										c0,2.6-0.5,5-1.5,7.3c-1,2.3-2.3,4.3-4,6c-1.7,1.7-3.7,3-6,4c-2.3,1-4.7,1.5-7.3,1.5l0,0h-5.1c-2.6,0-5-0.5-7.3-1.5
										c-2.3-1-4.3-2.3-6-4c-1.7-1.7-3-3.7-4-6c-1-2.3-1.5-4.7-1.5-7.3l0,0v-28.8c0-2.6,0.5-5,1.5-7.3c1-2.3,2.3-4.3,4-6
										c1.7-1.7,3.7-3,6-4c2.3-1,4.7-1.5,7.3-1.5l0,0h5.1c2.6,0,5,0.5,7.3,1.5c2.3,1,4.3,2.3,6,4c1.7,1.7,3,3.7,4,6
										c1,2.3,1.5,4.7,1.5,7.3l0,0v15h-35v14.2c0,1.5,0.3,3,0.9,4.3c0.6,1.3,1.4,2.5,2.3,3.5c1,1,2.2,1.8,3.5,2.3
										c1.4,0.6,2.8,0.9,4.3,0.9l0,0h5.1c1.5,0,3-0.3,4.3-0.9c1.3-0.6,2.5-1.4,3.5-2.3c1-1,1.8-2.2,2.4-3.5
										c0.6-1.4,0.9-2.8,0.9-4.3l0,0v-4.2l7.7,1.3V-657.3z M-153.1-677v-9.5c0-1.5-0.3-3-0.9-4.3c-0.6-1.3-1.4-2.5-2.4-3.5
										c-1-1-2.2-1.8-3.5-2.3c-1.3-0.6-2.8-0.9-4.3-0.9l0,0h-5.1c-1.5,0-3,0.3-4.3,0.9c-1.3,0.6-2.5,1.4-3.5,2.3
										c-1,1-1.8,2.2-2.3,3.5c-0.6,1.4-0.9,2.8-0.9,4.3l0,0v9.5H-153.1z M-53.2-655.9L-53.2-655.9c0,2.6-0.5,4.9-1.6,7.1
										c-1,2.1-2.5,4-4.2,5.5c-1.8,1.5-3.9,2.7-6.2,3.6c-2.3,0.9-4.8,1.3-7.4,1.3l0,0h-5.1c-2.6,0-5-0.5-7.4-1.5
										c-2.3-1-4.4-2.3-6.2-4c-1.8-1.7-3.2-3.7-4.2-6c-1.1-2.3-1.6-4.7-1.6-7.3l0,0v-2.6l7.7-1.3v4.2c0,1.5,0.3,3,1,4.3
										c0.6,1.3,1.5,2.5,2.6,3.5c1.1,1,2.3,1.8,3.8,2.3c1.4,0.6,2.9,0.9,4.4,0.9l0,0h5.1c1.5,0,3-0.2,4.4-0.7
										c1.4-0.5,2.7-1.1,3.8-2c1.1-0.9,2-1.9,2.6-3.1s1-2.6,1-4.1l0,0c0-2.3-0.5-4.2-1.5-5.6c-1-1.4-2.3-2.7-4-3.7
										c-1.6-1-3.5-1.8-5.6-2.4c-2.1-0.6-4.3-1.3-6.5-1.9c-2.2-0.6-4.4-1.4-6.5-2.2c-2.1-0.8-4-1.9-5.6-3.3c-1.6-1.4-3-3.1-4-5.1
										c-1-2-1.5-4.6-1.5-7.6l0,0c0-2.6,0.5-4.9,1.5-7.1c1-2.1,2.4-4,4.1-5.5c1.7-1.5,3.7-2.8,6-3.6c2.3-0.9,4.7-1.3,7.3-1.3l0,0
										h4.5c2.6,0,5,0.5,7.3,1.5c2.3,1,4.3,2.3,6,4c1.7,1.7,3,3.7,4,6c1,2.3,1.5,4.7,1.5,7.3l0,0v0.3l-7.7,1.3v-1.9
										c0-1.5-0.3-3-0.9-4.3c-0.6-1.3-1.4-2.5-2.4-3.5c-1-1-2.2-1.8-3.5-2.3c-1.3-0.6-2.8-0.9-4.3-0.9l0,0h-4.5
										c-1.5,0-3,0.2-4.3,0.7c-1.3,0.5-2.5,1.1-3.5,2c-1,0.9-1.8,1.9-2.4,3.1c-0.6,1.2-0.9,2.6-0.9,4.1l0,0c0,2.2,0.5,4,1.5,5.4
										c1,1.4,2.3,2.6,4,3.5c1.6,1,3.5,1.8,5.6,2.4c2.1,0.6,4.3,1.3,6.4,2c2.2,0.7,4.3,1.5,6.4,2.3c2.1,0.9,4,2,5.6,3.4
										c1.7,1.4,3,3.1,4,5.1C-53.7-661.5-53.2-659-53.2-655.9z M37.2-639.7h-7.7v-46.8c0-1.5-0.3-3-0.9-4.3
										c-0.6-1.3-1.4-2.5-2.4-3.5c-1-1-2.2-1.8-3.5-2.3c-1.3-0.6-2.8-0.9-4.3-0.9l0,0h-5.1c-1.5,0-3,0.3-4.3,0.9
										c-1.4,0.6-2.5,1.4-3.5,2.3c-1,1-1.8,2.2-2.4,3.5c-0.6,1.4-0.9,2.8-0.9,4.3l0,0v46.8h-7.7v-89.4h7.7v30.9
										c1.7-2.1,3.8-3.7,6.3-4.9c2.5-1.2,5.1-1.8,8-1.8l0,0h1.9c2.6,0,5,0.5,7.3,1.5c2.3,1,4.3,2.3,6,4s3,3.7,4,6
										c1,2.3,1.5,4.7,1.5,7.3l0,0V-639.7z M190.6-639.7h-2.6l-4.2-6.5c-1.7,2.4-3.9,4.2-6.5,5.6c-2.6,1.4-5.5,2.1-8.6,2.1l0,0
										h-1.9c-2.6,0-5-0.5-7.3-1.5c-2.3-1-4.3-2.3-6-4s-3-3.7-4-6c-1-2.3-1.5-4.7-1.5-7.3l0,0v-28.8c0-2.6,0.5-5,1.5-7.3
										c1-2.3,2.3-4.3,4-6s3.7-3,6-4c2.3-1,4.7-1.5,7.3-1.5l0,0h1.9c2.9,0,5.5,0.6,8,1.8c2.5,1.2,4.5,2.8,6.3,4.9l0,0v-30.9h7.7
										V-639.7z M183-656.8v-29.7c0-1.5-0.3-3-0.9-4.3c-0.6-1.3-1.4-2.5-2.4-3.5c-1-1-2.2-1.8-3.5-2.3c-1.3-0.6-2.8-0.9-4.3-0.9
										l0,0h-5.1c-1.5,0-3,0.3-4.3,0.9c-1.4,0.6-2.5,1.4-3.5,2.3c-1,1-1.8,2.2-2.4,3.5c-0.6,1.4-0.9,2.8-0.9,4.3l0,0v29.7
										c0,1.5,0.3,3,0.9,4.3c0.6,1.3,1.4,2.5,2.4,3.5c1,1,2.2,1.8,3.5,2.3c1.3,0.6,2.8,0.9,4.3,0.9l0,0h5.1c1.5,0,3-0.3,4.3-0.9
										c1.4-0.6,2.5-1.4,3.5-2.3c1-1,1.8-2.2,2.4-3.5C182.7-653.8,183-655.3,183-656.8L183-656.8z M281.7-639.7h-2.6l-4.2-6.4
										c-1.7,2.3-3.9,4.1-6.5,5.5s-5.5,2.1-8.6,2.1l0,0h-1.9c-2.6,0-5-0.5-7.3-1.5c-2.3-1-4.3-2.3-6-4c-1.7-1.7-3-3.7-4-6
										c-1-2.3-1.5-4.7-1.5-7.3l0,0v-0.6c0-2.6,0.5-5,1.5-7.3c1-2.3,2.3-4.3,4-6c1.7-1.7,3.7-3.1,6-4c2.3-1,4.7-1.5,7.3-1.5l0,0
										H274v-9.9c0-1.5-0.3-3-0.9-4.3c-0.6-1.3-1.4-2.5-2.4-3.5c-1-1-2.2-1.8-3.5-2.3c-1.3-0.6-2.8-0.9-4.3-0.9l0,0h-4.5
										c-1.5,0-3,0.3-4.3,0.9c-1.3,0.6-2.5,1.4-3.5,2.3c-1,1-1.8,2.2-2.4,3.5c-0.6,1.4-0.9,2.8-0.9,4.3l0,0v2.3l-7.7-1.3v-0.6
										c0-2.6,0.5-5,1.5-7.3c1-2.3,2.3-4.3,4-6c1.7-1.7,3.7-3,6-4c2.3-1,4.7-1.5,7.3-1.5l0,0h4.5c2.6,0,5,0.5,7.3,1.5
										c2.3,1,4.3,2.3,6,4c1.7,1.7,3.1,3.7,4,6c1,2.3,1.5,4.7,1.5,7.3l0,0V-639.7z M274-656.8v-13.8h-16.2c-1.5,0-3,0.3-4.3,0.9
										c-1.4,0.6-2.5,1.4-3.5,2.4c-1,1-1.8,2.2-2.4,3.6c-0.6,1.4-0.9,2.8-0.9,4.3l0,0v2.7c0,1.5,0.3,3,0.9,4.3
										c0.6,1.3,1.4,2.5,2.4,3.5c1,1,2.2,1.8,3.5,2.3c1.3,0.6,2.8,0.9,4.3,0.9l0,0h5.1c1.5,0,3-0.3,4.3-0.9
										c1.3-0.6,2.5-1.4,3.5-2.3c1-1,1.8-2.2,2.4-3.5C273.7-653.8,274-655.3,274-656.8L274-656.8z M340.9-718.9H332v-10.2h8.9
										V-718.9z M340.3-639.7h-7.7v-63.9h7.7V-639.7z M417.6-696.3H410c-1.5,0-3,0.3-4.3,0.9c-1.3,0.6-2.5,1.4-3.5,2.4
										c-1,1-1.8,2.2-2.4,3.5c-0.6,1.3-0.9,2.8-0.9,4.3l0,0v45.5h-7.7v-63.9h2.6l4.2,6.5c1.8-2.4,4-4.2,6.6-5.6
										c2.6-1.4,5.5-2.1,8.6-2.1l0,0h4.5V-696.3z M503.6-703.6l-32.3,89.4h-7.4l11.4-31.1l-20.7-58.4h7.7l16.7,48.4l0.3,3.3
										l0.3-3.3l16.6-48.4H503.6z M649.3-657.3L649.3-657.3c0,2.6-0.5,5-1.5,7.3c-1,2.3-2.3,4.3-4,6c-1.7,1.7-3.7,3-6,4
										c-2.3,1-4.7,1.5-7.3,1.5l0,0h-1.9c-2.9,0-5.5-0.6-8-1.8c-2.5-1.2-4.5-2.8-6.3-4.9l0,0v30.9h-7.7v-89.4h2.6l4.2,6.5
										c1.8-2.4,4-4.2,6.6-5.6c2.6-1.4,5.5-2.1,8.6-2.1l0,0h1.9c2.6,0,5,0.5,7.3,1.5c2.3,1,4.3,2.3,6,4c1.7,1.7,3,3.7,4,6
										c1,2.3,1.5,4.7,1.5,7.3l0,0V-657.3z M641.6-656.8v-29.7c0-1.5-0.3-3-0.9-4.3c-0.6-1.3-1.4-2.5-2.4-3.5
										c-1-1-2.2-1.8-3.5-2.3c-1.3-0.6-2.8-0.9-4.3-0.9l0,0h-5.1c-1.5,0-3,0.3-4.3,0.9c-1.4,0.6-2.5,1.4-3.5,2.3
										c-1,1-1.8,2.2-2.4,3.5c-0.6,1.4-0.9,2.8-0.9,4.3l0,0v29.7c0,1.5,0.3,3,0.9,4.3c0.6,1.3,1.4,2.5,2.4,3.5
										c1,1,2.2,1.8,3.5,2.3c1.3,0.6,2.8,0.9,4.3,0.9l0,0h5.1c1.5,0,3-0.3,4.3-0.9c1.4-0.6,2.5-1.4,3.5-2.3c1-1,1.8-2.2,2.4-3.5
										C641.4-653.8,641.6-655.3,641.6-656.8L641.6-656.8z M724.1-696.3h-7.7c-1.5,0-3,0.3-4.3,0.9c-1.4,0.6-2.5,1.4-3.5,2.4
										c-1,1-1.8,2.2-2.4,3.5c-0.6,1.3-0.9,2.8-0.9,4.3l0,0v45.5h-7.7v-63.9h2.6l4.2,6.5c1.8-2.4,4-4.2,6.6-5.6
										c2.6-1.4,5.5-2.1,8.6-2.1l0,0h4.5V-696.3z M810-657.3L810-657.3c0,2.6-0.5,5-1.5,7.3c-1,2.3-2.3,4.3-4,6
										c-1.7,1.7-3.7,3-6,4c-2.3,1-4.7,1.5-7.3,1.5l0,0h-5.1c-2.6,0-5-0.5-7.3-1.5c-2.3-1-4.3-2.3-6-4c-1.7-1.7-3-3.7-4-6
										c-1-2.3-1.5-4.7-1.5-7.3l0,0v-28.8c0-2.6,0.5-5,1.5-7.3c1-2.3,2.3-4.3,4-6c1.7-1.7,3.7-3,6-4c2.3-1,4.7-1.5,7.3-1.5l0,0
										h5.1c2.6,0,5,0.5,7.3,1.5c2.3,1,4.3,2.3,6,4c1.7,1.7,3,3.7,4,6c1,2.3,1.5,4.7,1.5,7.3l0,0V-657.3z M802.4-656.8v-29.7
										c0-1.5-0.3-3-0.9-4.3c-0.6-1.3-1.4-2.5-2.4-3.5c-1-1-2.2-1.8-3.5-2.3c-1.3-0.6-2.8-0.9-4.3-0.9l0,0h-5.1
										c-1.5,0-3,0.3-4.3,0.9c-1.3,0.6-2.5,1.4-3.5,2.3c-1,1-1.8,2.2-2.4,3.5c-0.6,1.4-0.9,2.8-0.9,4.3l0,0v29.7
										c0,1.5,0.3,3,0.9,4.3c0.6,1.3,1.4,2.5,2.4,3.5c1,1,2.2,1.8,3.5,2.3c1.4,0.6,2.8,0.9,4.3,0.9l0,0h5.1c1.5,0,3-0.3,4.3-0.9
										c1.3-0.6,2.5-1.4,3.5-2.3c1-1,1.8-2.2,2.4-3.5C802.1-653.8,802.4-655.3,802.4-656.8L802.4-656.8z M901.1-639.7h-2.6
										l-4.2-6.5c-1.8,2.4-3.9,4.2-6.5,5.6c-2.6,1.4-5.5,2.1-8.6,2.1l0,0h-1.9c-2.6,0-5-0.5-7.3-1.5c-2.3-1-4.3-2.3-6-4
										c-1.7-1.7-3-3.7-4-6c-1-2.3-1.5-4.7-1.5-7.3l0,0v-28.8c0-2.6,0.5-5,1.5-7.3c1-2.3,2.3-4.3,4-6c1.7-1.7,3.7-3,6-4
										c2.3-1,4.7-1.5,7.3-1.5l0,0h1.9c2.9,0,5.5,0.6,8,1.8c2.5,1.2,4.6,2.8,6.3,4.9l0,0v-30.9h7.7V-639.7z M893.4-656.8v-29.7
										c0-1.5-0.3-3-0.9-4.3c-0.6-1.3-1.4-2.5-2.4-3.5c-1-1-2.2-1.8-3.5-2.3c-1.3-0.6-2.8-0.9-4.3-0.9l0,0h-5.1
										c-1.5,0-3,0.3-4.3,0.9c-1.3,0.6-2.5,1.4-3.5,2.3c-1,1-1.8,2.2-2.3,3.5c-0.6,1.4-0.9,2.8-0.9,4.3l0,0v29.7
										c0,1.5,0.3,3,0.9,4.3c0.6,1.3,1.4,2.5,2.3,3.5c1,1,2.2,1.8,3.5,2.3c1.4,0.6,2.8,0.9,4.3,0.9l0,0h5.1c1.5,0,3-0.3,4.3-0.9
										c1.3-0.6,2.5-1.4,3.5-2.3c1-1,1.8-2.2,2.4-3.5C893.1-653.8,893.4-655.3,893.4-656.8L893.4-656.8z M992.1-639.7h-2.6
										l-4.2-6.5c-1.8,2.4-3.9,4.2-6.5,5.6c-2.6,1.4-5.5,2.1-8.6,2.1l0,0h-1.9c-2.6,0-5-0.5-7.3-1.5c-2.3-1-4.3-2.3-6-4
										c-1.7-1.7-3-3.7-4-6c-1-2.3-1.5-4.7-1.5-7.3l0,0v-46.3h7.7v46.8c0,1.5,0.3,3,0.9,4.3c0.6,1.3,1.4,2.5,2.3,3.5
										c1,1,2.2,1.8,3.5,2.3c1.4,0.6,2.8,0.9,4.3,0.9l0,0h5.1c1.5,0,3-0.3,4.3-0.9c1.3-0.6,2.5-1.4,3.5-2.3c1-1,1.8-2.2,2.4-3.5
										c0.6-1.4,0.9-2.8,0.9-4.3l0,0v-46.8h7.7V-639.7z M1083.1-657.3L1083.1-657.3c0,2.6-0.5,5-1.5,7.3c-1,2.3-2.3,4.3-4,6
										c-1.7,1.7-3.7,3-6,4c-2.3,1-4.7,1.5-7.3,1.5l0,0h-5.1c-2.6,0-5-0.5-7.3-1.5c-2.3-1-4.3-2.3-6-4c-1.7-1.7-3-3.7-4-6
										c-1-2.3-1.5-4.7-1.5-7.3l0,0v-28.8c0-2.6,0.5-5,1.5-7.3c1-2.3,2.3-4.3,4-6c1.7-1.7,3.7-3,6-4c2.3-1,4.7-1.5,7.3-1.5l0,0
										h5.1c2.6,0,5,0.5,7.3,1.5c2.3,1,4.3,2.3,6,4c1.7,1.7,3,3.7,4,6c1,2.3,1.5,4.7,1.5,7.3l0,0v2.6l-7.7,1.3v-4.2
										c0-1.5-0.3-3-0.9-4.3c-0.6-1.3-1.4-2.5-2.3-3.5c-1-1-2.2-1.8-3.5-2.3c-1.4-0.6-2.8-0.9-4.3-0.9l0,0h-5.1
										c-1.5,0-3,0.3-4.3,0.9c-1.3,0.6-2.5,1.4-3.5,2.3c-1,1-1.8,2.2-2.4,3.5c-0.6,1.4-0.9,2.8-0.9,4.3l0,0v29.7
										c0,1.5,0.3,3,0.9,4.3c0.6,1.3,1.4,2.5,2.4,3.5c1,1,2.2,1.8,3.5,2.3c1.3,0.6,2.8,0.9,4.3,0.9l0,0h5.1c1.5,0,3-0.3,4.3-0.9
										c1.3-0.6,2.5-1.4,3.5-2.3c1-1,1.8-2.2,2.3-3.5c0.6-1.4,0.9-2.8,0.9-4.3l0,0v-4.2l7.7,1.3V-657.3z M1161.7-639.7h-7
										c-2.3,0-4.5-0.4-6.6-1.3c-2.1-0.9-3.8-2.1-5.4-3.6c-1.5-1.5-2.7-3.3-3.6-5.4c-0.9-2-1.3-4.2-1.3-6.5l0,0v-39.7h-11.5v-7.3
										h11.5v-15.4l7.7-1.2v16.6h16.2v7.3h-16.2v40.1c0,1.3,0.2,2.5,0.7,3.6s1.1,2.1,2,2.9c0.8,0.8,1.8,1.5,2.9,2
										c1.1,0.5,2.3,0.7,3.6,0.7l0,0h7V-639.7z"/>
								</g>
							</g>
						</g>
					</g>
				</g>
			</g>
		</g>
		<rect x="-333.9" y="-886" class="st1" width="1495.7" height="328.2"/>
	</g>
</g>
</svg>
